inDegrees=yes
name=ik_S52_A06_T05
DataType=double
version=3
OpenSimVersion=4.3-2021-08-27-4bc7ad9
endheader
time	pelvis_tilt	pelvis_list	pelvis_rotation	pelvis_tx	pelvis_ty	pelvis_tz	hip_flexion_r	hip_adduction_r	hip_rotation_r	knee_angle_r	knee_angle_r_beta	ankle_angle_r	subtalar_angle_r	mtp_angle_r	hip_flexion_l	hip_adduction_l	hip_rotation_l	knee_angle_l	knee_angle_l_beta	ankle_angle_l	subtalar_angle_l	mtp_angle_l	lumbar_extension	lumbar_bending	lumbar_rotation	arm_flex_r	arm_add_r	arm_rot_r	elbow_flex_r	pro_sup_r	wrist_flex_r	wrist_dev_r	arm_flex_l	arm_add_l	arm_rot_l	elbow_flex_l	pro_sup_l	wrist_flex_l	wrist_dev_l
8.199999999999914	-4.448985932523115	-0.5102126806455486	18.58228147336396	0	0.9399999999999999	0	44.04077767214827	-10.57377005208144	-10.55643548833503	54.26616091756012	0.9471231804284913	0	0	0	44.04077767214827	-10.57377005208144	-10.55643548833503	54.26616091756012	0.9471231804284913	0	0	0	-2.841142053023817	-0.583545292609723	2.392022597746343	33.71447689960038	-9.942871623730156	-9.165061061089506	34.08607624706228	149.705866824314	0	0	67.31301054414428	-12.02268948582546	-8.828240498763453	35.28764510552219	92.47903456178439	0	0
8.219999999999914	-4.448674938553668	-0.5162363380185501	18.50620355185603	0	0.9399999999999999	0	44.04110256627505	-10.57309280652692	-10.55601389357984	54.26632772815641	0.9471260918226238	0	0	0	44.04110256627505	-10.57309280652692	-10.55601389357984	54.26632772815641	0.9471260918226238	0	0	0	-2.842386338820373	-0.5934117190134385	2.477799187630534	33.7298143627989	-9.924208552968423	-9.102753027527168	34.06546619966345	149.7061119962835	0	0	67.55159829762579	-11.74322541413646	-8.121620407308001	35.07482849144236	92.02052390268378	0	0
8.239999999999913	-4.460940406799844	-0.5200370510855836	18.43921307755612	0	0.9399999999999999	0	44.04140983002458	-10.57245182441462	-10.55561492297991	54.26648527094466	0.9471288414629914	0	0	0	44.04140983002458	-10.57245182441462	-10.55561492297991	54.26648527094466	0.9471288414629914	0	0	0	-2.854725317049561	-0.5972491680415488	2.561617376934815	33.75339770707927	-9.934180666655346	-9.113960613199653	34.05719377649416	149.7418529207091	0	0	67.76365891672624	-11.40825278044573	-7.440943368315237	35.01188376635413	91.66957553288137	0	0
8.259999999999913	-4.47643302094321	-0.510861941525384	18.35508174469961	0	0.9399999999999999	0	44.04168571108524	-10.5718789312693	-10.55525773951126	54.26662724786355	0.9471313194276879	0	0	0	44.04168571108524	-10.5718789312693	-10.55525773951126	54.26662724786355	0.9471313194276879	0	0	0	-2.866137702139589	-0.58738854179051	2.639383749299256	33.84669762613848	-9.904674922799705	-8.920676485798976	33.99277261611265	149.6543502684955	0	0	67.92368959476613	-11.04834625594037	-6.871705291326934	35.05761985659854	91.53169504815087	0	0
8.279999999999912	-4.504497211753487	-0.5106812977660852	18.2709728479366	0	0.9399999999999999	0	44.04193117216242	-10.57136860820185	-10.55493965609375	54.26675335738638	0.9471335204540794	0	0	0	44.04193117216242	-10.57136860820185	-10.55493965609375	54.26675335738638	0.9471335204540794	0	0	0	-2.892477494152997	-0.5810390610865503	2.692535185109408	33.94753639571599	-9.915588564995316	-8.797031287307863	33.96841726055654	149.5880060071098	0	0	68.11099315774226	-10.70071442312799	-6.446850929769109	35.15202616815921	91.39894550139608	0	0
8.299999999999912	-4.491508043449516	-0.5035527106161002	18.18523897795554	0	0.9399999999999999	0	44.04215714604896	-10.57089929465069	-10.55464700220888	54.2668695168206	0.9471355478186637	0	0	0	44.04215714604896	-10.57089929465069	-10.55464700220888	54.2668695168206	0.9471355478186637	0	0	0	-2.877810504900391	-0.5801183227788143	2.729603010408822	34.0148934663637	-9.838417682200895	-8.689997482663955	33.87527934371398	149.5977120995769	0	0	68.28718740082149	-10.34956299888087	-6.150776662552801	35.24455155990037	91.38375279729313	0	0
8.319999999999911	-4.486039793529943	-0.5007964384660466	18.11213236273396	0	0.9399999999999999	0	44.04237810043249	-10.57043982333769	-10.55436058271881	54.26698291000871	0.9471375269031456	0	0	0	44.04237810043249	-10.57043982333769	-10.55436058271881	54.26698291000871	0.9471375269031456	0	0	0	-2.871633797495174	-0.5812964594181759	2.77330095703277	34.069468443242	-9.803732829372853	-8.718531578294723	33.80209504879601	149.6557086293626	0	0	68.53560575405047	-9.916890449326534	-6.001329216571093	35.29225362572789	91.59375330043011	0	0
8.339999999999911	-4.499310882092159	-0.4959282111534093	17.94794658892087	0	0.9399999999999999	0	44.04269053454316	-10.56978962588773	-10.55395532625864	54.26714303970068	0.9471403216935008	0	0	0	44.04269053454316	-10.56978962588773	-10.55395532625864	54.26714303970068	0.9471403216935008	0	0	0	-2.882130427114696	-0.5787500105395028	2.894045095009416	34.14413406619362	-9.806180408931985	-8.694226345699033	33.73814620687844	149.6676122091061	0	0	69.23431374105344	-8.839835392917486	-5.692376880014188	34.64180510932605	92.02088334816665	0	0
8.359999999999911	-4.516613570325325	-0.5057403127389193	17.87225256714842	0	0.9399999999999999	0	44.04284023694311	-10.56948128582324	-10.55376245097944	54.2672204743814	0.9471416731836344	0	0	0	44.04284023694311	-10.56948128582324	-10.55376245097944	54.2672204743814	0.9471416731836344	0	0	0	-2.901791841416939	-0.5825089261374928	2.891871657351892	34.2340306415411	-9.763680343848657	-8.551965752106947	33.69169495834912	149.6514085950883	0	0	69.27574479229557	-8.715137548767453	-5.60295394001216	34.86581346337841	92.06356083013974	0	0
8.37999999999991	-4.533407832060042	-0.5121461394781479	17.72950205550663	0	0.9399999999999999	0	44.04311227161752	-10.56891671377794	-10.5534101663994	54.26736012209313	0.9471441104959971	0	0	0	44.04311227161752	-10.56891671377794	-10.5534101663994	54.26736012209313	0.9471441104959971	0	0	0	-2.919448254088781	-0.5872455999054969	2.963277603623737	34.37967560692184	-9.714432641717726	-8.367589107096673	33.55413822768963	149.5838024357652	0	0	69.67845083425456	-7.986358072271468	-5.311828232258092	34.76651346965536	92.06385185630272	0	0
8.39999999999991	-4.520281180227679	-0.5079331671339639	17.56605572931165	0	0.9399999999999999	0	44.04357715448268	-10.56794914931234	-10.5528069103473	54.26759794356731	0.9471482612637535	0	0	0	44.04357715448268	-10.56794914931234	-10.5528069103473	54.26759794356731	0.9471482612637535	0	0	0	-2.905800390368826	-0.5897829109351513	3.020990930045713	34.36778423564041	-9.66138165409202	-8.280738553273183	33.48625891023146	149.6435047077464	0	0	70.12916157722182	-7.217715047837438	-5.030474206357051	34.38922988770632	92.17738536081613	0	0
8.419999999999909	-4.509823755499518	-0.4929018020140025	17.38037928258893	0	0.9399999999999999	0	44.04395808269177	-10.56715838929815	-10.55231336127515	54.26779311995153	0.9471516677342802	0	0	0	44.04395808269177	-10.56715838929815	-10.55231336127515	54.26779311995153	0.9471516677342802	0	0	0	-2.89137172705715	-0.5809108485616874	3.069077906593653	34.49515344339561	-9.587652094608162	-8.024790083161923	33.33590562830685	149.6420195969027	0	0	70.56807320668074	-6.469453444622353	-4.774404257152749	34.0050871802222	92.34979865802823	0	0
8.439999999999909	-4.530272568168133	-0.4811487146779868	17.12370367570795	0	0.9399999999999999	0	44.04442569769819	-10.56618707228718	-10.55170713252875	54.26803234954107	0.9471558430782858	0	0	0	44.04442569769819	-10.56618707228718	-10.55170713252875	54.26803234954107	0.9471558430782858	0	0	0	-2.908002788318551	-0.5634972258372393	3.072140083945356	34.56484344415554	-9.491604275495588	-7.790080575718377	33.27595968308655	149.7068476932781	0	0	71.06881017044137	-5.728265248468293	-4.456067199665267	33.53036376736156	92.38284183002546	0	0
8.459999999999908	-4.530539090241087	-0.4819717263368898	16.99758709307578	0	0.9399999999999999	0	44.04471732530251	-10.56558446219464	-10.5513303026236	54.26818216546283	0.9471584578593926	0	0	0	44.04471732530251	-10.56558446219464	-10.5513303026236	54.26818216546283	0.9471584578593926	0	0	0	-2.907392808800008	-0.5726751685449242	3.227525214928596	34.84820343083751	-9.531649859827438	-7.614501232306999	32.97336584085387	149.5410640464351	0	0	71.53567305898524	-4.71274176655881	-3.865547556902171	33.04490675706521	92.27731572264437	0	0
8.479999999999908	-4.563191973960045	-0.4544479926136376	16.65155623818619	0	0.9399999999999999	0	44.0451684015259	-10.56464985561173	-10.55074630384377	54.26841312179763	0.9471624888078631	0	0	0	44.0451684015259	-10.56464985561173	-10.55074630384377	54.26841312179763	0.9471624888078631	0	0	0	-2.931440218588371	-0.5355034574460102	3.207773688935478	35.2361983109693	-9.372460849339408	-7.077023849791371	32.67168169226742	149.4338334470175	0	0	72.027285644805	-3.923363749777911	-3.474606042693931	32.47336360320864	92.17806530379534	0	0
8.499999999999908	-4.570058413024037	-0.4392169394875718	16.4481201436071	0	0.9399999999999999	0	44.04546293455046	-10.56404095966838	-10.55036548188107	54.26856412807486	0.9471651243645919	0	0	0	44.04546293455046	-10.56404095966838	-10.55036548188107	54.26856412807486	0.9471651243645919	0	0	0	-2.933699505315072	-0.5217162703371897	3.267185585677144	35.40322766345633	-9.333161344483576	-6.971506253098932	32.49010611487758	149.403518528514	0	0	72.50538725597566	-2.973326352409648	-3.163294582780287	31.99966252046455	92.33456487510664	0	0
8.519999999999907	-4.579136797237052	-0.4369553984845828	16.15293734900327	0	0.9399999999999999	0	44.04594504611157	-10.56304374789339	-10.54974179390778	54.26881095955577	0.9471694323866314	0	0	0	44.04594504611157	-10.56304374789339	-10.54974179390778	54.26881095955577	0.9471694323866314	0	0	0	-2.941327813701672	-0.5248567160026324	3.451144705722749	35.55251401232871	-9.310651507850755	-6.90561235346737	32.23885592554622	149.4410588848326	0	0	73.50520539400408	-1.128369009472467	-2.66489896583597	30.65678857396092	92.84613413929121	0	0
8.539999999999907	-4.598819074391889	-0.4396947328887103	16.03181761184958	0	0.9399999999999999	0	44.04614816151805	-10.56262553973449	-10.54947979711393	54.26891534157887	0.9471712541966144	0	0	0	44.04614816151805	-10.56262553973449	-10.54947979711393	54.26891534157887	0.9471712541966144	0	0	0	-2.961558846762931	-0.5194965786019309	3.407028548103098	35.73241942841805	-9.238908969163267	-6.763804889835436	32.10987498236027	149.4372557888211	0	0	73.4867646230439	-1.072650270932128	-2.625293751887454	30.68556168706133	92.92568097818446	0	0
8.559999999999906	-4.608596671316591	-0.4486760061346833	15.82791691708696	0	0.9399999999999999	0	44.04649401173243	-10.56191218651172	-10.54903310641302	54.26909266273692	0.9471743490346559	0	0	0	44.04649401173243	-10.56191218651172	-10.54903310641302	54.26909266273692	0.9471743490346559	0	0	0	-2.973372413895761	-0.5284110830506185	3.471191373180805	35.91196484891424	-9.173572432803564	-6.585304347580932	31.89186332764599	149.3672818067917	0	0	73.92656569317234	-0.130716707525842	-2.292017444481985	30.08493738849956	93.0981684777	0	0
8.579999999999906	-4.607581747864294	-0.4444032947928019	15.6179860656698	0	0.9399999999999999	0	44.04686700107181	-10.56114321325966	-10.54855143487899	54.26928383197883	0.9471776855673557	0	0	0	44.04686700107181	-10.56114321325966	-10.54855143487899	54.26928383197883	0.9471776855673557	0	0	0	-2.971172164738031	-0.5278388117667333	3.538942281174252	35.91495192654922	-9.115200238588848	-6.466054137664365	31.81377313737261	149.3909031250455	0	0	74.316808724005	0.8816337119155341	-1.98497603178419	29.38524789648304	93.48637877983992	0	0
8.599999999999905	-4.605447848902333	-0.4466853983567123	15.41674515885937	0	0.9399999999999999	0	44.04738780279359	-10.56006991849559	-10.54787892364345	54.26955060366387	0.9471823416116106	0	0	0	44.04738780279359	-10.56006991849559	-10.54787892364345	54.26955060366387	0.9471823416116106	0	0	0	-2.969897851033439	-0.5329981171802569	3.594903217333993	36.04006611766407	-9.023765798566062	-6.24217626340637	31.66546807564016	149.391673340972	0	0	74.73653450561871	1.758157832179789	-1.793448520462936	28.60468341132497	93.81395556854504	0	0
8.619999999999905	-4.61104574376168	-0.453571711598459	15.2429148743096	0	0.9399999999999999	0	44.04772312489832	-10.55938139679236	-10.5474468913592	54.2697228051051	0.9471853470937369	0	0	0	44.04772312489832	-10.55938139679236	-10.5474468913592	54.2697228051051	0.9471853470937369	0	0	0	-2.976675498332027	-0.5435799168346938	3.692110654505107	36.26983544556843	-8.988737353151812	-5.995178301643588	31.42276975710506	149.3180096737401	0	0	75.12100114002919	2.718696605260242	-1.449595496655838	27.91209337125283	93.88713872003154	0	0
